<svg xmlns="http://www.w3.org/2000/svg" width="16.821" height="20" viewBox="0 0 16.821 20"><path d="M1.556,20A1.556,1.556,0,0,1,0,18.444V4.962A1.561,1.561,0,0,1,1.556,3.4H8.17a1.556,1.556,0,0,1,1.1.457l2.719,2.719a1.563,1.563,0,0,1,.457,1.1V18.444A1.556,1.556,0,0,1,10.89,20Zm0-1.556H10.89V9.11H7.519a.776.776,0,0,1-.778-.778V4.962H1.556ZM8.3,7.555h2.466L8.3,5.088Zm4.78,9.042V15.041h2.188V5.707H11.894a.776.776,0,0,1-.778-.778V1.559H5.931V2.771H4.375V1.559A1.56,1.56,0,0,1,5.931,0h6.615a1.538,1.538,0,0,1,.594.119,1.556,1.556,0,0,1,.5.338l2.719,2.719a1.563,1.563,0,0,1,.457,1.1V15.041A1.555,1.555,0,0,1,15.265,16.6ZM12.672,4.152h2.466L12.672,1.685Z"/></svg>