<svg xmlns="http://www.w3.org/2000/svg" width="20" height="20" viewBox="0 0 20 20"><defs><style>.a,.c{fill:#707070;}.b,.c{stroke:none;}</style></defs><g class="a"><path class="b" d="M 11.17339420318604 19.49963188171387 L 11.17336463928223 19.49963188171387 C 7.330386638641357 19.49984169006348 4.019430160522461 16.74595069885254 3.248759031295776 13.00602245330811 L 4.77167272567749 13.00602245330811 C 5.483396530151367 15.90291500091553 8.163618087768555 18.03857231140137 11.17405414581299 18.03835296630859 C 11.20361995697021 18.03834342956543 11.233642578125 18.03813934326172 11.26330471038818 18.03772163391113 C 14.9513635635376 18.03549766540527 17.97029304504395 14.99951553344727 17.99373435974121 11.26809310913086 L 17.99376487731934 11.26291275024414 L 17.99369430541992 11.25773239135742 C 17.94946098327637 8.194825172424316 15.87825870513916 5.521591186523438 13.01122379302979 4.748052597045898 L 13.01122379302979 3.228755474090576 C 14.72232341766357 3.60528039932251 16.28366851806641 4.525747299194336 17.4557933807373 5.859532833099365 C 18.77398490905762 7.359522819519043 19.49994468688965 9.279202461242676 19.49994468688965 11.26495265960693 C 19.49994468688965 15.80553245544434 15.83862400054932 19.49956321716309 11.33824443817139 19.49956321716309 C 11.31348419189453 19.49956321716309 11.28866386413574 19.49945259094238 11.26384449005127 19.49923324584961 L 11.2591438293457 19.49919319152832 L 11.25444412231445 19.49923324584961 C 11.22754383087158 19.49950218200684 11.20023441314697 19.49963188171387 11.17339420318604 19.49963188171387 Z M 9.485074043273926 9.489892959594727 L 0.5127811431884766 9.489892959594727 C 0.5695310235023499 8.38362979888916 0.8151081800460815 7.310962200164795 1.244944214820862 6.294602870941162 C 1.482534289360046 5.732832908630371 1.776644229888916 5.191072940826416 2.119124174118042 4.684362888336182 C 2.458394289016724 4.182422637939453 2.848084211349487 3.710442781448364 3.277374267578125 3.281532764434814 C 3.706694364547729 2.85260272026062 4.179064273834229 2.463202714920044 4.681384086608887 2.12414288520813 C 5.188184261322021 1.781972765922546 5.730264186859131 1.48783278465271 6.292604446411133 1.249842762947083 C 6.865114212036133 1.007652759552002 7.464144229888916 0.8213328123092651 8.072994232177734 0.6960927844047546 C 8.535957336425781 0.6008297801017761 9.009044647216797 0.5399377942085266 9.485074043273926 0.5141502022743225 L 9.485074043273926 9.489892959594727 Z M 7.974774360656738 2.249682903289795 L 7.303434371948242 2.494552850723267 C 5.084984302520752 3.303762912750244 3.244354248046875 5.137962818145752 2.499844312667847 7.28138256072998 L 2.269184350967407 7.945442676544189 L 2.972164154052734 7.945442676544189 L 7.474774360656738 7.945442676544189 L 7.974774360656738 7.945442676544189 L 7.974774360656738 7.445442676544189 L 7.974774360656738 2.964282751083374 L 7.974774360656738 2.249682903289795 Z"/><path class="c" d="M 11.17339420318604 18.99963188171387 C 11.1986141204834 18.99963188171387 11.22426414489746 18.99951362609863 11.24954414367676 18.9992618560791 L 11.25900459289551 18.99917221069336 L 11.26847457885742 18.99925231933594 C 11.29174423217773 18.99946212768555 11.31502437591553 18.99956321716309 11.33824443817139 18.99956321716309 C 15.5629243850708 18.99956321716309 18.99994468688965 15.52983283996582 18.99994468688965 11.26495265960693 C 18.99994468688965 9.400742530822754 18.31817436218262 7.598282814025879 17.08021354675293 6.189592838287354 C 16.11892318725586 5.09572696685791 14.87940406799316 4.297673225402832 13.51122379302979 3.877023696899414 L 13.51122379302979 4.376174926757813 C 16.39787101745605 5.329454898834229 18.44810676574707 8.097915649414063 18.49364471435547 11.25051307678223 L 18.49379348754883 11.26087284088135 L 18.49372482299805 11.27123260498047 C 18.46856880187988 15.27554702758789 15.22729587554932 18.53374290466309 11.2667121887207 18.53771781921387 C 11.23598861694336 18.53813743591309 11.20492649078369 18.53834342956543 11.17409420013428 18.53835296630859 C 8.068910598754883 18.53857231140137 5.290322780609131 16.42679786682129 4.391449451446533 13.50602245330811 L 3.887931108474731 13.50602245330811 C 4.823596000671387 16.70621490478516 7.777084827423096 18.99982070922852 11.17334461212158 18.99963188171387 L 11.17339420318604 18.99963188171387 M 8.985074043273926 8.989892959594727 L 8.985074043273926 1.057236671447754 C 8.712072372436523 1.087902545928955 8.441084861755371 1.130823016166687 8.173734664916992 1.185832738876343 C 7.597054481506348 1.304462790489197 7.029674053192139 1.480932831764221 6.48747444152832 1.710302829742432 C 5.954784393310547 1.935742735862732 5.441274166107178 2.214392900466919 4.961124420166016 2.538562774658203 C 4.485174179077148 2.859822750091553 4.03758430480957 3.228802680969238 3.630774259567261 3.635252714157104 C 3.224014282226563 4.041632652282715 2.854794263839722 4.488812923431396 2.533374309539795 4.964342594146729 C 2.209004163742065 5.444272994995117 1.930444240570068 5.957362651824951 1.705454230308533 6.489352703094482 C 1.366893172264099 7.289907455444336 1.149041414260864 8.127546310424805 1.054394841194153 8.989892959594727 L 8.985074043273926 8.989892959594727 M 8.474774360656738 1.535072803497314 L 8.474774360656738 2.964282751083374 L 8.474774360656738 7.445442676544189 L 8.474774360656738 8.445443153381348 L 7.474774360656738 8.445443153381348 L 2.972164154052734 8.445443153381348 L 1.566204309463501 8.445443153381348 L 2.02752423286438 7.11732292175293 C 2.820094347000122 4.83555269241333 4.776054382324219 2.884222745895386 7.132094383239746 2.024832725524902 L 8.474774360656738 1.535072803497314 M 11.17339420318604 19.99963188171387 C 6.802294254302979 19.9998722076416 3.218274354934692 16.7044620513916 2.65714430809021 12.50602245330811 L 5.176964282989502 12.50602245330811 C 5.67182731628418 15.31076049804688 8.233457565307617 17.53856468200684 11.1740198135376 17.5383472442627 C 11.2022876739502 17.53834533691406 11.23101806640625 17.53813743591309 11.25935459136963 17.53772354125977 C 14.66981410980225 17.53772354125977 17.47199440002441 14.72784233093262 17.49374389648438 11.26495265960693 C 17.45032501220703 8.258452415466309 15.30535411834717 5.709882736206055 12.51122379302979 5.143542766571045 L 12.51122379302979 2.629302740097046 C 16.71334457397461 3.244042873382568 19.99994468688965 6.869802951812744 19.99994468688965 11.26495265960693 C 19.99994468688965 16.04641723632813 16.14574241638184 19.99956703186035 11.33824348449707 19.99956703186035 C 11.31198596954346 19.99956703186035 11.28566837310791 19.99944877624512 11.25935459136963 19.99921226501465 C 11.23082447052002 19.99949264526367 11.20186424255371 19.99963188171387 11.17339420318604 19.99963188171387 Z M 9.985074043273926 9.989892959594727 L 4.250793608662207e-06 9.989892959594727 C 4.250793608662207e-06 8.639522552490234 0.2638842463493347 7.330712795257568 0.7844342589378357 6.09984302520752 C 1.03460419178009 5.508322715759277 1.344284296035767 4.937872886657715 1.704864263534546 4.404372692108154 C 2.061904191970825 3.876142740249634 2.472054243087769 3.379342794418335 2.923984289169312 2.927822828292847 C 3.375664234161377 2.476542711257935 3.872814178466797 2.066672801971436 4.401654243469238 1.709712743759155 C 4.935244083404541 1.349462747573853 5.50594425201416 1.039832830429077 6.097734451293945 0.7893828153610229 C 6.700274467468262 0.5344827771186829 7.330884456634521 0.3382728099822998 7.972254276275635 0.206342801451683 C 8.629874229431152 0.07103279232978821 9.307024002075195 0.001562795136123896 9.985074043273926 2.795105046971003e-06 L 9.985074043273926 9.989892959594727 Z M 7.474774360656738 2.964282751083374 C 5.393904209136963 3.723302841186523 3.668604135513306 5.440423011779785 2.972164154052734 7.445442676544189 L 7.474774360656738 7.445442676544189 L 7.474774360656738 2.964282751083374 Z"/></g></svg>