<svg xmlns="http://www.w3.org/2000/svg" width="20" height="20" viewBox="0 0 20 20"><defs><style>.a{fill:#333;}</style></defs><path class="a" d="M16.519,8.3a2.49,2.49,0,1,0-2.475-2.49A2.486,2.486,0,0,0,16.519,8.3Zm.009-3.589A1.09,1.09,0,1,1,15.447,5.8,1.088,1.088,0,0,1,16.529,4.706ZM8.5,19.83a1.755,1.755,0,0,0,2.493,0L21.34,9.458a2.634,2.634,0,0,0,.569-2.023V2.4A2.1,2.1,0,0,0,19.81.35H14.583a2.512,2.512,0,0,0-1.87.573L2.428,11.359a1.779,1.779,0,0,0,0,2.509ZM14.438,2.354l5.372-.023c.124,0,.1.008.1.134l-.007,5.33L9.748,18.133l-5.54-5.519Z" transform="translate(-1.91 -0.35)"/></svg>