<svg xmlns="http://www.w3.org/2000/svg" width="20" height="20.001" viewBox="0 0 20 20.001"><path d="M20.068,9.3,16.856,7.7l3.212-1.606a.782.782,0,0,0,0-1.4L10.849.082a.782.782,0,0,0-.7,0L.93,4.692a.782.782,0,0,0,0,1.4L4.142,7.7.93,9.3a.782.782,0,0,0,0,1.4l3.212,1.606L.93,13.911a.782.782,0,0,0,0,1.4l9.219,4.61a.782.782,0,0,0,.7,0l9.219-4.61a.782.782,0,0,0,0-1.4l-3.212-1.606L20.068,10.7A.782.782,0,0,0,20.068,9.3ZM10.5,1.654l7.472,3.736L10.5,9.127,3.027,5.391ZM17.972,14.61,10.5,18.346,3.027,14.61,5.89,13.179l4.26,2.13a.782.782,0,0,0,.7,0l4.26-2.13ZM10.5,13.736,3.027,10,5.89,8.569l4.26,2.13a.782.782,0,0,0,.7,0l4.26-2.13L17.972,10Zm0,0" transform="translate(-0.499 0)"/></svg>